<svg xmlns="http://www.w3.org/2000/svg" viewBox="0 0 113.12 144">
  <title>Asset 1</title>
  <g id="Layer_2" data-name="Layer 2">
    <g id="Layer_1-2" data-name="Layer 1">
      <path class="cls-1"
        d="M108.21,36h-9.1l4.15-30.43A4.78,4.78,0,0,0,98.4,0H4.92A4.79,4.79,0,0,0,.05,5.57L18.93,144H84.38l4.91-36H99.73a5.07,5.07,0,0,0,4.87-4.25l8.47-62.18A4.78,4.78,0,0,0,108.21,36Zm-32.5,98.54H27.6L19,72a32.45,32.45,0,0,0,16.31,4.73c13.31,0,19.29-9.44,32.63-9.46A32.29,32.29,0,0,1,84.38,72Z" />
    </g>
  </g>
</svg>